<svg width="55" height="20" viewBox="0 0 55 20" fill="none" xmlns="http://www.w3.org/2000/svg">
<g clip-path="url(#clip0_962_4691)">
<path d="M4.74615 1.65765H3.35231V12.4865H1.50642V1.65765H0.09375V0.162155H4.72731V1.65765H4.74615Z" fill="#3C3C3B"/>
<path d="M9.3045 12.4865H5.65039V0.162155H9.26683V1.63963H7.49628V3.44143H9.22916V4.86486H7.51512V10.9549H9.3045V12.4865Z" fill="#3C3C3B"/>
<path d="M15.407 0.162155L14.1261 6.01801L15.633 12.4865H13.7306L12.6758 6.97297L11.6398 12.4865H9.79395L11.2443 6.01801L9.86929 0.162155H11.7717L12.7888 4.88288L13.6929 0.162155H15.407Z" fill="#3C3C3B"/>
<path d="M21.8116 12.4865H19.9469V5.74774H18.3459V12.4865H16.5V0.162155H18.3459V4.23423H19.9469V0.162155H21.8116V12.4865Z" fill="#3C3C3B"/>
<path d="M28.3849 10.036C28.3849 10.6126 28.3472 11.0631 28.2719 11.4054C28.1965 11.7477 28.0647 12.018 27.8763 12.1982C27.6691 12.3784 27.4054 12.5045 27.0664 12.5586C26.7274 12.6126 26.2753 12.6486 25.7291 12.6486C25.1828 12.6486 24.7308 12.6126 24.3917 12.5586C24.0527 12.5045 23.789 12.3784 23.5818 12.1982C23.3934 12.018 23.2616 11.7477 23.1863 11.4054C23.1109 11.0631 23.0732 10.6126 23.0732 10.036V2.59459C23.0732 2.01802 23.1109 1.56757 23.1863 1.22523C23.2616 0.882883 23.3934 0.630631 23.5818 0.45045C23.7702 0.27027 24.0527 0.144144 24.3917 0.0900901C24.7308 0.036036 25.1828 0 25.7291 0C26.2753 0 26.7274 0.036036 27.0664 0.0900901C27.4054 0.144144 27.688 0.27027 27.8763 0.45045C28.0835 0.630631 28.2154 0.900901 28.2719 1.22523C28.3472 1.56757 28.3849 2.01802 28.3849 2.59459V10.036ZM26.5202 2.59459C26.5202 2.18018 26.4637 1.90991 26.3695 1.78378C26.2753 1.65766 26.0493 1.6036 25.7291 1.6036C25.5595 1.6036 25.4277 1.62162 25.3147 1.63964C25.2205 1.65766 25.1263 1.71171 25.0698 1.78378C25.0133 1.85586 24.9756 1.96396 24.9568 2.09009C24.938 2.21622 24.938 2.37838 24.938 2.57658V10.018C24.938 10.2342 24.938 10.4144 24.9568 10.5405C24.9756 10.6667 25.0133 10.7748 25.0698 10.8468C25.1263 10.9189 25.2017 10.973 25.3147 10.991C25.4089 11.009 25.5595 11.027 25.7291 11.027C25.8986 11.027 26.0304 11.009 26.1434 10.991C26.2376 10.973 26.3318 10.9189 26.3883 10.8288C26.4448 10.7568 26.4825 10.6486 26.5013 10.5225C26.5202 10.3964 26.5202 10.2162 26.5202 10.018V2.59459Z" fill="#3C3C3B"/>
<path d="M35.0148 12.4865H33.15V1.62161H31.549V12.4865H29.7031V0.162155H35.0336V12.4865H35.0148Z" fill="#3C3C3B"/>
<path d="M39.7046 12.4865V9.72973H38.1412V12.4685H36.333V2.59459C36.333 2.01802 36.3707 1.56757 36.446 1.22523C36.5214 0.882883 36.6532 0.630631 36.8416 0.45045C37.0299 0.27027 37.2936 0.144144 37.6327 0.0900901C37.9717 0.036036 38.4049 0 38.9323 0C39.4597 0 39.8929 0.036036 40.232 0.0900901C40.571 0.144144 40.8347 0.27027 41.0419 0.468468C41.2491 0.648649 41.381 0.918919 41.4563 1.26126C41.5316 1.6036 41.5693 2.03604 41.5693 2.59459V12.4865H39.7046ZM38.9135 1.6036C38.744 1.6036 38.6121 1.62162 38.5179 1.63964C38.4238 1.65766 38.3296 1.71171 38.2731 1.78378C38.2166 1.85586 38.1789 1.94595 38.1601 2.07207C38.1412 2.1982 38.1412 2.37838 38.1412 2.57658V8.25225H39.7046V2.59459C39.7046 2.37838 39.6857 2.21622 39.6669 2.09009C39.6481 1.96396 39.6104 1.85586 39.5539 1.8018C39.4974 1.74775 39.422 1.69369 39.309 1.65766C39.196 1.62162 39.0642 1.6036 38.9135 1.6036Z" fill="#3C3C3B"/>
<path d="M44.7346 7.81981V12.4865H42.8887V0.162155H45.5257C46.0719 0.162155 46.5239 0.198191 46.863 0.252245C47.202 0.306299 47.4846 0.432425 47.6729 0.594588C47.8801 0.774768 48.012 1.02702 48.0685 1.35134C48.1438 1.67567 48.1815 2.12612 48.1815 2.66666V5.29729C48.1815 5.85585 48.1438 6.28828 48.0685 6.63062C47.9931 6.95495 47.8613 7.22522 47.6541 7.38738C47.4469 7.56756 47.1832 7.67567 46.8442 7.72972C46.5051 7.78378 46.0531 7.80179 45.5257 7.80179H44.7346V7.81981ZM44.7346 1.7117V6.36035H45.5257C45.6952 6.36035 45.827 6.34233 45.9212 6.32432C46.0342 6.3063 46.1096 6.25224 46.1661 6.18017C46.2226 6.1081 46.2602 5.99999 46.2791 5.87387C46.2979 5.74774 46.3168 5.56756 46.3168 5.36936V2.66666C46.3168 2.46846 46.3168 2.3063 46.2979 2.18017C46.2791 2.05405 46.2414 1.96396 46.1849 1.89188C46.1284 1.81981 46.0531 1.78378 45.9589 1.74774C45.8647 1.72972 45.714 1.7117 45.5257 1.7117H44.7346Z" fill="#3C3C3B"/>
<path d="M54.7355 0.162155L52.8331 5.27927L54.9992 12.4865H52.9838L51.2321 5.99999H51.1567V12.4685H49.292V0.180173H51.1567V4.82882H51.2321L52.7954 0.162155H54.7355Z" fill="#3C3C3B"/>
<path d="M38.9712 17.8919C38.877 17.8198 38.764 17.8018 38.651 17.8018C38.5945 17.8018 38.538 17.8018 38.4814 17.8198V18.5225C38.538 18.5225 38.5945 18.5405 38.6698 18.5405C38.8017 18.5405 38.9335 18.5045 39.0088 18.4144C39.0654 18.3604 39.103 18.2703 39.103 18.1622C39.103 18.036 39.0465 17.9459 38.9712 17.8919Z" fill="#3C3C3B"/>
<path d="M7.23314 17.1351C7.19547 17.2432 7.17664 17.3874 7.13897 17.4955L6.98828 17.964H7.49684L7.34616 17.4955C7.28965 17.3694 7.25198 17.2432 7.23314 17.1351Z" fill="#3C3C3B"/>
<path d="M35.4679 17.1171C35.3738 17.1171 35.2984 17.1171 35.2607 17.1351V17.7838C35.2984 17.8018 35.3549 17.8018 35.4303 17.8018C35.694 17.8018 35.8635 17.6757 35.8635 17.4595C35.8635 17.2252 35.7128 17.1171 35.4679 17.1171Z" fill="#3C3C3B"/>
<path d="M45.0548 17.1171C44.9607 17.1171 44.8853 17.1171 44.8477 17.1351V17.7838C44.8853 17.8018 44.9418 17.8018 45.0172 17.8018C45.2809 17.8018 45.4504 17.6757 45.4504 17.4595C45.4692 17.2252 45.3185 17.1171 45.0548 17.1171Z" fill="#3C3C3B"/>
<path d="M0 15.5676V20H55V15.5676H0ZM4.18151 18.4685C4.33219 18.4685 4.48288 18.4324 4.57705 18.3964L4.63356 18.6667C4.55822 18.7027 4.36986 18.7568 4.125 18.7568C3.50342 18.7568 3.12671 18.3784 3.12671 17.8198C3.12671 17.2072 3.57877 16.8288 4.18151 16.8288C4.42637 16.8288 4.57705 16.8829 4.6524 16.9189L4.57705 17.1892C4.48288 17.1532 4.35103 17.1171 4.20034 17.1171C3.80479 17.1171 3.52226 17.3513 3.52226 17.8018C3.50342 18.1982 3.74829 18.4685 4.18151 18.4685ZM7.7226 18.7207L7.55308 18.1802H6.93151L6.76199 18.7207H6.38527L7.00685 16.8468H7.4589L8.09931 18.7207H7.7226ZM11.5086 18.7207H11.1507V17.8919H10.3219V18.7207H9.96404V16.8468H10.3219V17.6036H11.1507V16.8468H11.5086V18.7207ZM14.5411 18.7207C14.4658 18.5946 14.4281 18.4324 14.3716 18.2883C14.2962 18.0541 14.1832 17.8919 13.9007 17.8919H13.8253V18.7027H13.4675V16.8468H13.8253V17.6577H13.8818L14.4846 16.8468H14.9178L14.2021 17.6937C14.4846 17.7477 14.5976 17.9279 14.6918 18.1622C14.7671 18.3604 14.8236 18.5405 14.9178 18.7207H14.5411ZM18.101 17.1171H17.536V18.7027H17.1781V17.1171H16.613V16.8288H18.101V17.1171ZM20.286 18.0901H19.5514V17.8559H20.286V18.0901ZM23.6575 18.7207H23.2997V17.1171H22.5086V18.7207H22.1507V16.8468H23.6575V18.7207ZM26.8408 18.7207H25.6541V16.8468H26.8031V17.1171H26.012V17.6036H26.7466V17.8739H26.012V18.4324H26.8408V18.7207ZM30.024 17.1171H29.4589V18.7027H29.101V17.1171H28.536V16.8288H30.024V17.1171ZM33.0188 18.7207H31.8322V16.8468H32.9812V17.1171H32.1901V17.6036H32.9247V17.8739H32.1901V18.4324H33.0188V18.7207ZM36.0514 17.8198C35.9007 17.964 35.6935 18.018 35.4298 18.018C35.3545 18.018 35.2979 18.018 35.2603 18V18.7027H34.9024V16.8649C35.0342 16.8468 35.2038 16.8288 35.4486 16.8288C35.7123 16.8288 35.9007 16.8829 36.0325 16.991C36.1455 17.0811 36.2209 17.2252 36.2209 17.4054C36.2209 17.5676 36.1644 17.7117 36.0514 17.8198ZM39.2911 18.5225C39.1216 18.6847 38.8202 18.7387 38.5377 18.7387C38.3305 18.7387 38.1798 18.7207 38.1045 18.7207V16.8468H39.3099V17.1171H38.4623V17.5135C38.5377 17.5135 38.6318 17.4955 38.7072 17.4955C38.8955 17.4955 39.1027 17.5315 39.2346 17.6396C39.3853 17.7297 39.4795 17.8739 39.4795 18.0901C39.4606 18.2883 39.4041 18.4144 39.2911 18.5225ZM42.3425 17.7658C42.2295 18.036 42.0976 18.3243 41.9658 18.5045C41.8339 18.6667 41.6832 18.7387 41.476 18.7387C41.4007 18.7387 41.3442 18.7387 41.2877 18.7207L41.3253 18.4504C41.363 18.4504 41.4007 18.4685 41.4384 18.4685C41.6079 18.4685 41.7021 18.3423 41.7586 18.2342C41.7774 18.1982 41.7774 18.1622 41.7586 18.1261L41.0993 16.8468H41.4949L41.8339 17.5676C41.8904 17.6937 41.9281 17.8018 41.9658 17.9099C42.0034 17.8198 42.0223 17.7117 42.0788 17.5495L42.3425 16.8288H42.7192L42.3425 17.7658ZM45.6575 17.8198C45.5068 17.964 45.2997 18.018 45.036 18.018C44.9606 18.018 44.9041 18.018 44.8664 18V18.7027H44.5086V16.8649C44.6404 16.8468 44.8099 16.8288 45.0548 16.8288C45.3185 16.8288 45.5068 16.8829 45.6387 16.991C45.7517 17.0811 45.8271 17.2252 45.8271 17.4054C45.8271 17.5676 45.7517 17.7117 45.6575 17.8198ZM48.8219 17.1171H48.0685V18.7207H47.7106V16.8468H48.8219V17.1171ZM51.5908 18.7207L51.4212 18.1802H50.7997L50.6301 18.7207H50.2534L50.875 16.8468H51.3271L51.9675 18.7207H51.5908Z" fill="#3C3C3B"/>
<path d="M51.1013 17.1351C51.0636 17.2432 51.0448 17.3874 51.0071 17.4955L50.8564 17.964H51.365L51.2143 17.4955C51.1578 17.3694 51.139 17.2432 51.1013 17.1351Z" fill="#3C3C3B"/>
</g>
<defs>
<clipPath id="clip0_962_4691">
<rect width="55" height="20" fill="white"/>
</clipPath>
</defs>
</svg>
