<svg width="88" height="88" viewBox="0 0 88 88" fill="none" xmlns="http://www.w3.org/2000/svg">
<path d="M85 31.1C84.5 22.4 80.6 14.5 74.1 8.80001C67.6 3.00001 59.3 5.63264e-06 50.6 0.600006C41.9 1.10001 33.9 5.00001 28.1 11.6C16.9 24.3 17.4 43.3 28.7 55.5L23.4 61.6L20.9 59.4L3.09998 79.4L12.1 87.5L29.9 67.3L27.8 65.5L33.1 59.4C38.9 63.6 45.7 65.7 52.4 65.7C61.4 65.7 70.4 62 76.8 54.8C82.7 48.2 85.6 39.8 85 31.1ZM72.4 50.8C62.7 61.7 45.9 62.7 34.8 53.1C23.9 43.3 22.9 26.5 32.5 15.5C37.2 10.1 43.8 7.00001 50.9 6.60001H52.5C59 6.60001 65.2 9.00001 70.1 13.4C75.4 18.1 78.6 24.5 79 31.6C79.5 38.6 77.1 45.4 72.4 50.8Z" fill="#0071E3"/>
</svg>
